<svg xmlns="http://www.w3.org/2000/svg" width="91.472" height="100.472" viewBox="0 0 91.472 100.472">
  <path id="logo" d="M55.915,79.591,23.237,37.58,45.651,6.459A12.939,12.939,0,0,1,56,1.05h.421V.007H36.126V1.03h.929c2.639,0,3.947,2.882,2.314,5.462L16.707,40.683,48.543,81.5c17.064,21.872,31.466,19.676,37.83,17.941V98.288c-11.816,0-22.783-8.8-30.457-18.7ZM68.629,67.433,44.121,35.923l16.81-23.34a9.706,9.706,0,0,1,7.762-4.057h.316V7.744H53.787v.768h.7c1.98,0,2.961,2.162,1.735,4.1l-17,25.643L63.1,68.865C75.9,85.271,86.7,83.623,91.472,82.322v-.867c-8.862,0-17.088-6.6-22.843-14.021ZM19.772,79.781c-3.363,0-6.092-3.243-6.154-7.27V8.345c.094-3.993,2.809-7.2,6.153-7.2l1.216,0L21,0,13.337,0V.007H7.665V0H0L.016,1.156l1.216-.01c3.349,0,6.069,3.218,6.153,7.224V72.51c-.062,4.027-2.791,7.271-6.153,7.271l-1.216,0L0,80.923H21l-.016-1.144Z" fill="#fff"/>
</svg>
